Coordinates
version=1
nRows=60
nColumns=12
inDegrees=yes

Units are S.I. units (second, meters, Newtons, ...)
Angles are in degrees

endheader
time	SC_y	SC_z	SC_x	AC_y	AC_z	AC_x	GH_y	GH_z	GH_yy	EL_x	PS_y
       0.0              -29.17          38.68          11.37          31.67         -11.17          14.97         -35.68          12.51          97.81          21.09          31.43
   0.02767              -29.17          38.68          11.37          31.67         -11.17          14.97         -35.68          12.52           97.8           21.1          31.44
   0.05534              -29.18          38.68          11.38          31.67         -11.16          14.97         -35.67          12.52          97.79           21.1          31.46
   0.08302              -29.18          38.68          11.39          31.67         -11.16          14.97         -35.66          12.52          97.79           21.1          31.47
    0.1107              -29.18          38.67           11.4          31.68         -11.16          14.97         -35.65          12.53          97.78          21.11          31.48
    0.1384              -29.18          38.67          11.41          31.68         -11.16          14.97         -35.64          12.53          97.77          21.11           31.5
     0.166              -29.19          38.67          11.42          31.68         -11.15          14.96         -35.63          12.53          97.76          21.12          31.52
    0.1937              -29.19          38.66          11.43          31.68         -11.15          14.96         -35.62          12.54          97.75          21.12          31.53
    0.2214              -29.19          38.66          11.44          31.68         -11.15          14.96         -35.61          12.54          97.74          21.13          31.55
     0.249               -29.2          38.66          11.46          31.68         -11.14          14.96          -35.6          12.55          97.73          21.14          31.57
    0.2767               -29.2          38.65          11.47          31.69         -11.14          14.96         -35.58          12.55          97.72          21.14          31.59
    0.3044               -29.2          38.65          11.48          31.69         -11.13          14.96         -35.57          12.56          97.71          21.15          31.62
    0.3321              -29.21          38.65           11.5          31.69         -11.13          14.96         -35.55          12.56           97.7          21.16          31.64
    0.3597              -29.21          38.64          11.52          31.69         -11.12          14.95         -35.53          12.57          97.68          21.16          31.67
    0.3874              -29.22          38.64          11.54           31.7         -11.12          14.95         -35.51          12.57          97.67          21.17           31.7
    0.4151              -29.22          38.63          11.56           31.7         -11.11          14.95         -35.49          12.58          97.65          21.18          31.73
    0.4428              -29.23          38.62          11.58           31.7          -11.1          14.95         -35.47          12.59          97.64          21.19          31.76
    0.4704              -29.24          38.62           11.6          31.71          -11.1          14.95         -35.45           12.6          97.62          21.21           31.8
    0.4981              -29.24          38.61          11.63          31.71         -11.09          14.94         -35.42          12.61           97.6          21.22          31.84
    0.5258              -29.25           38.6          11.66          31.72         -11.08          14.94         -35.39          12.62          97.57          21.23          31.89
    0.5534              -29.26          38.59          11.69          31.72         -11.07          14.94         -35.36          12.63          97.55          21.25          31.94
    0.5811              -29.27          38.58          11.72          31.73         -11.06          14.93         -35.33          12.64          97.52          21.26          31.99
    0.6088              -29.28          38.57          11.76          31.73         -11.05          14.93         -35.29          12.66          97.49          21.28          32.05
    0.6365              -29.29          38.56           11.8          31.74         -11.03          14.92         -35.25          12.67          97.46           21.3          32.12
    0.6641               -29.3          38.55          11.85          31.75         -11.02          14.92          -35.2          12.69          97.42          21.32          32.19
    0.6918              -29.32          38.53           11.9          31.75          -11.0          14.91         -35.15          12.71          97.38          21.35          32.27
    0.7195              -29.33          38.52          11.96          31.76         -10.99          14.91         -35.09          12.73          97.33          21.38          32.36
    0.7471              -29.35           38.5          12.02          31.77         -10.97           14.9         -35.02          12.75          97.28          21.41          32.47
    0.7748              -29.37          38.48           12.1          31.79         -10.94          14.89         -34.95          12.78          97.22          21.44          32.59
    0.8025              -29.39          38.46          12.18           31.8         -10.92          14.88         -34.86          12.81          97.15          21.48          32.72
    0.8302              -29.42          38.43          12.28          31.81         -10.89          14.87         -34.76          12.85          97.07          21.53          32.87
    0.8578              -29.45           38.4          12.39          31.83         -10.85          14.86         -34.65          12.89          96.99          21.58          33.04
    0.8855              -29.48          38.36          12.52          31.85         -10.81          14.85         -34.52          12.93          96.88          21.64          33.25
    0.9132              -29.52          38.32          12.67          31.88         -10.77          14.83         -34.37          12.99          96.76          21.71          33.48
    0.9409              -29.57          38.27          12.84           31.9         -10.71          14.81          -34.2          13.05          96.63           21.8          33.75
    0.9685              -29.63          38.22          13.04          31.94         -10.65          14.79         -33.99          13.12          96.46          21.89          34.08
    0.9962              -29.69          38.15          13.29          31.97         -10.57          14.77         -33.75          13.21          96.27          22.01          34.46
     1.024              -29.77          38.07          13.58          32.02         -10.48          14.74         -33.45          13.32          96.03          22.15          34.92
     1.052              -29.86          37.97          13.93          32.08         -10.38           14.7          -33.1          13.45          95.75          22.32          35.47
     1.079              -29.98          37.85          14.36          32.14         -10.24          14.65         -32.66           13.6          95.41          22.52          36.15
     1.107              -30.12          37.71           14.9          32.23         -10.08           14.6         -32.13           13.8          94.98          22.78          36.99
     1.135               -30.3          37.52          15.56          32.33         -9.873          14.53         -31.46          14.04          94.45          23.09          38.03
     1.162              -30.53          37.29          16.39          32.47         -9.614          14.44         -30.61          14.34          93.78          23.49          39.35
      1.19              -30.81           37.0          17.46          32.63         -9.286          14.33         -29.54          14.73          92.93           24.0          41.02
     1.218              -31.18          36.62          18.82          32.85         -8.865          14.19         -28.17          15.22          91.84          24.65          43.16
     1.245              -31.65          36.14          20.56          33.13         -8.326           14.0         -26.41          15.86          90.45          25.48          45.91
     1.273              -32.25          35.52          22.79          33.48         -7.637          13.77         -24.17          16.67          88.66          26.54          49.42
     1.301              -33.01          34.75          25.59          33.92          -6.77          13.47         -21.34          17.69          86.42          27.88          53.83
     1.328              -33.93          33.81          29.01          34.46         -5.714          13.11          -17.9          18.93          83.69          29.51          59.21
     1.356               -35.0          32.71          32.96          35.09          -4.49          12.69          -13.9          20.37          80.52           31.4          65.45
     1.384              -36.15          31.53          37.25          35.77         -3.164          12.24         -9.582          21.92          77.09          33.44           72.2
     1.411              -37.31          30.34          41.54          36.44         -1.839          11.79          -5.26          23.48          73.66          35.49          78.95
     1.439              -38.37          29.25          45.49          37.07         -0.615          11.37         -1.268          24.92          70.49          37.38          85.18
     1.467               -39.3           28.3          48.91          37.61         0.4411          11.01          2.176          26.16          67.75          39.01          90.56
     1.494              -40.05          27.53          51.71          38.05          1.308          10.72          5.002          27.18          65.51          40.34          94.97
     1.522              -40.65          26.91          53.94          38.41          1.997          10.48          7.249          27.99          63.73          41.41          98.48
      1.55              -41.12          26.43          55.68          38.68          2.536           10.3          9.008          28.63          62.33          42.24          101.2
     1.577              -41.49          26.06          57.04           38.9          2.957          10.16          10.38          29.12          61.24          42.89          103.4
     1.605              -41.77          25.76          58.11          39.07          3.285          10.04          11.45          29.51          60.39           43.4          105.0
     1.633               -42.0          25.53          58.94           39.2          3.544          9.956          12.29          29.81          59.72           43.8          106.4
